<svg xmlns="http://www.w3.org/2000/svg" width="2706" height="2706" viewBox="0 0 2706 2706" fill="none">
  <path d="M 2678.453 2706 L 2706 2690.071 L 2706 2683.363 L 2666.835 2706 L 2678.453 2706 Z M 2500.951 55.814 L 2597.846 0 L 2586.109 0 L 2495.082 52.46 L 2404.176 0 L 2392.558 0 L 2489.333 55.814 L 2389.563 113.424 L 2292.908 57.61 L 2392.558 0 L 2381.06 0 L 2287.039 54.257 L 2193.018 0 L 2181.4 0 L 2281.29 57.61 L 2175.891 118.454 L 2067.498 55.933 L 2164.393 0 L 2152.655 0 L 2061.629 52.46 L 1970.722 0 L 1959.104 0 L 2055.88 55.933 L 1956.23 113.424 L 1859.454 57.61 L 1959.104 0 L 1947.606 0 L 1853.585 54.257 L 1759.565 0 L 1747.947 0 L 1847.836 57.61 L 1742.437 118.454 L 1634.044 55.933 L 1730.939 0 L 1719.322 0 L 1628.295 52.46 L 1537.388 0 L 1525.771 0 L 1622.426 55.933 L 1522.776 113.424 L 1426.001 57.61 L 1525.771 0 L 1514.153 0 L 1420.252 54.257 L 1326.231 0 L 1314.493 0 L 1414.383 57.61 L 1308.984 118.454 L 1200.71 55.933 L 1297.486 0 L 1285.868 0 L 1194.842 52.46 L 1103.935 0 L 1092.317 0 L 1188.973 55.933 L 1089.323 113.424 L 992.667 57.61 L 1092.317 0 L 1080.699 0 L 986.798 54.257 L 892.778 0 L 881.16 0 L 981.049 57.61 L 875.65 118.454 L 767.257 55.933 L 864.152 0 L 852.415 0 L 761.388 52.46 L 670.482 0 L 658.864 0 L 755.639 55.933 L 655.869 113.424 L 559.214 57.61 L 658.864 0 L 647.366 0 L 553.345 54.257 L 459.324 0 L 447.706 0 L 547.596 57.61 L 442.197 118.454 L 333.803 55.933 L 430.699 0 L 419.081 0 L 328.054 52.46 L 237.148 0 L 225.53 0 L 322.186 55.933 L 222.536 113.424 L 125.76 57.61 L 225.53 0 L 213.912 0 L 120.011 54.257 L 25.99 0 L 14.253 0 L 114.142 57.61 L 8.743 118.454 L 0 113.424 L 0 120.131 L 2.994 121.808 L 0 123.485 L 0 130.192 L 8.743 125.161 L 105.519 180.975 L 5.749 238.585 L 0 235.231 L 0 248.646 L 5.749 245.292 L 114.142 307.813 L 8.743 368.657 L 0 363.627 L 0 370.334 L 2.994 372.011 L 0 373.687 L 0 380.395 L 8.743 375.364 L 105.519 431.178 L 5.749 488.788 L 0 485.434 L 0 498.849 L 5.749 495.495 L 114.142 558.016 L 8.743 618.86 L 0 613.83 L 0 620.537 L 2.994 622.214 L 0 623.89 L 0 630.598 L 8.743 625.567 L 105.519 681.5 L 5.749 738.991 L 0 735.637 L 0 749.052 L 5.749 745.698 L 114.142 808.339 L 8.743 869.183 L 0 864.152 L 0 870.859 L 2.994 872.536 L 0 874.213 L 0 880.92 L 8.743 875.89 L 105.519 931.703 L 5.869 989.314 L 0 985.96 L 0 999.374 L 5.869 996.021 L 114.142 1058.542 L 8.743 1119.385 L 0 1114.355 L 0 1121.062 L 2.994 1122.739 L 0 1124.416 L 0 1131.123 L 8.743 1126.093 L 105.519 1181.906 L 5.749 1239.516 L 0 1236.163 L 0 1249.577 L 5.749 1246.224 L 114.142 1308.744 L 8.743 1369.588 L 0 1364.558 L 0 1371.265 L 2.994 1372.942 L 0 1374.619 L 0 1381.326 L 8.743 1376.296 L 105.519 1432.229 L 5.749 1489.719 L 0 1486.366 L 0 1499.78 L 5.749 1496.427 L 114.142 1559.067 L 8.743 1619.791 L 0 1614.761 L 0 1621.588 L 2.994 1623.265 L 0 1624.941 L 0 1631.649 L 8.743 1626.618 L 105.519 1682.432 L 5.749 1739.922 L 0 1736.569 L 0 1749.983 L 5.749 1746.63 L 114.142 1809.27 L 8.743 1870.114 L 0 1865.084 L 0 1871.791 L 2.994 1873.468 L 0 1875.144 L 0 1881.852 L 8.743 1876.821 L 105.519 1932.635 L 5.749 1990.245 L 0 1986.891 L 0 2000.306 L 5.749 1996.952 L 114.142 2059.473 L 8.743 2120.317 L 0 2115.286 L 0 2121.994 L 2.994 2123.67 L 0 2125.347 L 0 2132.054 L 8.743 2127.024 L 105.519 2182.838 L 5.749 2240.448 L 0 2237.094 L 0 2250.509 L 5.749 2247.155 L 114.142 2309.676 L 8.743 2370.52 L 0 2365.489 L 0 2372.197 L 2.994 2373.873 L 0 2375.55 L 0 2382.257 L 8.743 2377.227 L 105.519 2433.16 L 5.749 2490.651 L 0 2487.297 L 0 2500.711 L 5.749 2497.358 L 114.142 2559.999 L 8.743 2620.843 L 0 2615.812 L 0 2622.519 L 2.994 2624.196 L 0 2625.873 L 0 2632.58 L 8.743 2627.55 L 105.519 2683.363 L 66.353 2706 L 77.971 2706 L 111.268 2686.717 L 144.684 2706 L 156.422 2706 L 117.137 2683.363 L 222.536 2622.519 L 330.929 2685.04 L 294.638 2706 L 306.136 2706 L 336.678 2688.394 L 367.1 2706 L 378.718 2706 L 342.547 2685.04 L 442.197 2627.55 L 538.972 2683.363 L 499.807 2706 L 511.425 2706 L 544.721 2686.717 L 578.138 2706 L 589.755 2706 L 550.59 2683.363 L 655.869 2622.519 L 764.263 2685.04 L 727.972 2706 L 739.59 2706 L 770.132 2688.394 L 800.553 2706 L 812.171 2706 L 775.88 2685.04 L 875.65 2627.55 L 972.306 2683.363 L 933.141 2706 L 944.758 2706 L 978.175 2686.717 L 1011.591 2706 L 1023.209 2706 L 983.924 2683.363 L 1089.323 2622.519 L 1197.716 2685.04 L 1161.425 2706 L 1173.043 2706 L 1203.465 2688.394 L 1233.887 2706 L 1245.625 2706 L 1209.334 2685.04 L 1308.984 2627.55 L 1405.76 2683.363 L 1366.594 2706 L 1378.212 2706 L 1411.508 2686.717 L 1444.925 2706 L 1456.662 2706 L 1417.377 2683.363 L 1522.776 2622.519 L 1631.17 2685.04 L 1594.879 2706 L 1606.377 2706 L 1636.919 2688.394 L 1667.341 2706 L 1678.958 2706 L 1642.787 2685.04 L 1742.437 2627.55 L 1839.213 2683.363 L 1800.047 2706 L 1811.665 2706 L 1844.962 2686.717 L 1878.378 2706 L 1889.996 2706 L 1850.831 2683.363 L 1956.23 2622.519 L 2064.503 2685.04 L 2028.213 2706 L 2039.83 2706 L 2070.372 2688.394 L 2100.794 2706 L 2112.412 2706 L 2076.121 2685.04 L 2175.891 2627.55 L 2272.547 2683.363 L 2233.381 2706 L 2244.999 2706 L 2278.415 2686.717 L 2311.832 2706 L 2323.45 2706 L 2284.165 2683.363 L 2389.563 2622.519 L 2497.957 2685.04 L 2461.666 2706 L 2473.284 2706 L 2503.706 2688.394 L 2534.128 2706 L 2545.865 2706 L 2509.575 2685.04 L 2609.344 2627.55 L 2706 2683.363 L 2706 2676.656 L 2615.093 2624.196 L 2706 2571.736 L 2706 2565.029 L 2609.344 2620.843 L 2500.951 2558.202 L 2606.35 2497.358 L 2706 2554.968 L 2706 2548.261 L 2612.099 2494.004 L 2706 2439.868 L 2706 2433.16 L 2606.35 2490.651 L 2509.575 2434.837 L 2609.225 2377.227 L 2706 2433.16 L 2706 2426.453 L 2615.093 2373.873 L 2706 2321.414 L 2706 2314.706 L 2609.225 2370.52 L 2500.951 2307.999 L 2606.35 2247.155 L 2706 2304.645 L 2706 2297.938 L 2612.099 2243.801 L 2706 2189.545 L 2706 2182.838 L 2606.35 2240.448 L 2509.575 2184.634 L 2609.344 2127.024 L 2706 2182.838 L 2706 2176.13 L 2615.093 2123.67 L 2706 2071.21 L 2706 2064.503 L 2609.344 2120.317 L 2500.951 2057.796 L 2606.35 1996.952 L 2706 2054.442 L 2706 2047.735 L 2612.099 1993.599 L 2706 1939.342 L 2706 1932.635 L 2606.35 1990.245 L 2509.575 1934.312 L 2609.225 1876.821 L 2706 1932.635 L 2706 1925.928 L 2615.093 1873.468 L 2706 1821.008 L 2706 1814.3 L 2609.225 1870.114 L 2500.951 1807.474 L 2606.23 1746.63 L 2706 1804.24 L 2706 1797.532 L 2612.099 1743.276 L 2706 1689.139 L 2706 1682.432 L 2606.23 1739.922 L 2509.575 1684.109 L 2609.225 1626.618 L 2706 1682.432 L 2706 1675.725 L 2615.093 1623.265 L 2706 1570.805 L 2706 1564.097 L 2609.225 1619.911 L 2500.951 1557.271 L 2606.35 1496.427 L 2706 1554.037 L 2706 1547.21 L 2612.099 1493.073 L 2706 1438.936 L 2706 1432.229 L 2606.35 1489.719 L 2509.575 1433.906 L 2609.225 1376.296 L 2706 1432.229 L 2706 1425.522 L 2615.093 1372.942 L 2706 1320.482 L 2706 1313.775 L 2609.225 1369.588 L 2500.951 1307.068 L 2606.35 1246.224 L 2706 1303.714 L 2706 1297.007 L 2612.099 1242.87 L 2706 1188.614 L 2706 1181.906 L 2606.35 1239.516 L 2509.575 1183.703 L 2609.225 1126.093 L 2706 1181.906 L 2706 1175.199 L 2615.093 1122.739 L 2706 1070.279 L 2706 1063.572 L 2609.225 1119.385 L 2500.951 1056.865 L 2606.35 996.021 L 2706 1053.511 L 2706 1046.804 L 2612.099 992.667 L 2706 938.411 L 2706 931.703 L 2606.35 989.314 L 2509.575 933.38 L 2609.225 875.89 L 2706 931.703 L 2706 924.996 L 2615.093 872.536 L 2706 820.076 L 2706 813.369 L 2609.225 869.183 L 2500.951 806.542 L 2606.23 745.698 L 2706 803.308 L 2706 796.601 L 2612.099 742.344 L 2706 688.208 L 2706 681.5 L 2606.23 738.991 L 2509.575 683.177 L 2609.225 625.687 L 2706 681.5 L 2706 674.793 L 2615.093 622.214 L 2706 569.754 L 2706 563.046 L 2609.225 618.86 L 2500.951 556.339 L 2606.35 495.495 L 2706 552.986 L 2706 546.278 L 2612.099 492.142 L 2706 437.885 L 2706 431.178 L 2606.35 488.788 L 2509.575 432.974 L 2609.225 375.364 L 2706 431.178 L 2706 424.471 L 2615.093 372.011 L 2706 319.551 L 2706 312.843 L 2609.225 368.657 L 2500.951 306.136 L 2606.23 245.292 L 2706 302.783 L 2706 296.075 L 2612.099 241.939 L 2706 187.682 L 2706 180.975 L 2606.23 238.585 L 2509.575 182.771 L 2609.225 125.161 L 2706 180.975 L 2706 174.268 L 2615.093 121.808 L 2706 69.348 L 2706 62.641 L 2609.225 118.454 L 2500.951 55.814 Z M 2497.957 182.771 L 2392.558 243.615 L 2284.165 180.975 L 2389.563 120.131 L 2497.957 182.771 Z M 1311.859 1242.87 L 1411.508 1185.26 L 1519.902 1247.901 L 1420.252 1305.391 L 1311.859 1242.87 Z M 1516.907 1367.912 L 1411.508 1428.756 L 1314.853 1372.942 L 1420.252 1312.098 L 1516.907 1367.912 Z M 1414.383 1308.744 L 1308.984 1369.588 L 1200.71 1307.068 L 1306.109 1246.224 L 1414.383 1308.744 Z M 1303.235 1372.942 L 1203.465 1430.552 L 1095.192 1368.031 L 1194.842 1310.421 L 1303.235 1372.942 Z M 1194.842 1303.714 L 1098.186 1247.901 L 1203.465 1187.057 L 1300.241 1242.87 L 1194.842 1303.714 Z M 1189.093 1307.068 L 1089.323 1364.678 L 992.667 1308.744 L 1092.317 1251.254 L 1189.093 1307.068 Z M 1197.716 1433.906 L 1092.317 1494.75 L 983.924 1432.229 L 1089.323 1371.385 L 1197.716 1433.906 Z M 1203.465 1437.259 L 1300.241 1493.073 L 1194.842 1553.917 L 1098.186 1498.103 L 1203.465 1437.259 Z M 1209.334 1433.906 L 1308.984 1376.296 L 1405.76 1432.109 L 1305.99 1489.719 L 1209.334 1433.906 Z M 1411.508 1435.583 L 1519.902 1498.103 L 1420.252 1555.714 L 1311.859 1493.073 L 1411.508 1435.583 Z M 1417.377 1432.109 L 1522.776 1371.385 L 1631.17 1433.906 L 1525.771 1494.75 L 1417.377 1432.109 Z M 1426.001 1308.744 L 1525.771 1251.254 L 1622.426 1307.068 L 1522.776 1364.558 L 1426.001 1308.744 Z M 1417.377 1181.906 L 1522.776 1121.062 L 1631.17 1183.703 L 1525.771 1244.547 L 1417.377 1181.906 Z M 1411.508 1178.553 L 1314.853 1122.739 L 1420.252 1061.895 L 1516.907 1117.709 L 1411.508 1178.553 Z M 1405.76 1181.906 L 1306.109 1239.516 L 1209.334 1183.703 L 1308.984 1126.093 L 1405.76 1181.906 Z M 1203.465 1180.349 L 1095.192 1117.709 L 1194.842 1060.218 L 1303.235 1122.739 L 1203.465 1180.349 Z M 1197.716 1183.703 L 1092.317 1244.547 L 983.924 1181.906 L 1089.323 1121.062 L 1197.716 1183.703 Z M 978.175 1178.553 L 881.399 1122.739 L 986.798 1061.895 L 1083.574 1117.709 L 978.175 1178.553 Z M 1086.568 1247.901 L 986.798 1305.391 L 878.405 1242.87 L 978.175 1185.26 L 1086.568 1247.901 Z M 1083.574 1368.031 L 978.175 1428.875 L 881.399 1372.942 L 986.798 1312.098 L 1083.574 1368.031 Z M 1086.448 1498.103 L 986.798 1555.714 L 878.405 1493.073 L 978.175 1435.583 L 1086.448 1498.103 Z M 1083.574 1618.234 L 978.175 1679.078 L 881.399 1623.265 L 986.798 1562.421 L 1083.574 1618.234 Z M 992.667 1559.067 L 1092.317 1501.457 L 1188.973 1557.271 L 1089.323 1614.881 L 992.667 1559.067 Z M 1194.842 1560.624 L 1303.235 1623.265 L 1203.465 1680.755 L 1095.192 1618.234 L 1194.842 1560.624 Z M 1200.71 1557.271 L 1305.99 1496.427 L 1414.383 1559.067 L 1308.984 1619.911 L 1200.71 1557.271 Z M 1420.252 1562.421 L 1516.907 1618.234 L 1411.508 1679.078 L 1314.853 1623.265 L 1420.252 1562.421 Z M 1426.001 1559.067 L 1525.771 1501.457 L 1622.426 1557.271 L 1522.776 1614.881 L 1426.001 1559.067 Z M 1628.295 1560.624 L 1736.688 1623.265 L 1636.919 1680.755 L 1528.525 1618.234 L 1628.295 1560.624 Z M 1531.52 1498.103 L 1636.919 1437.259 L 1733.694 1493.073 L 1628.295 1553.917 L 1531.52 1498.103 Z M 1528.525 1367.912 L 1628.295 1310.421 L 1736.688 1372.942 L 1636.919 1430.552 L 1528.525 1367.912 Z M 1531.52 1247.901 L 1636.919 1187.057 L 1733.694 1242.87 L 1628.295 1303.714 L 1531.52 1247.901 Z M 1528.525 1117.709 L 1628.295 1060.218 L 1736.688 1122.739 L 1636.919 1180.349 L 1528.525 1117.709 Z M 1531.52 997.578 L 1636.919 936.734 L 1733.694 992.667 L 1628.295 1053.511 L 1531.52 997.578 Z M 1622.426 1056.865 L 1522.776 1114.355 L 1426.001 1058.542 L 1525.771 1000.931 L 1622.426 1056.865 Z M 1420.252 1055.188 L 1311.859 992.667 L 1411.508 935.057 L 1519.902 997.578 L 1420.252 1055.188 Z M 1414.383 1058.542 L 1308.984 1119.385 L 1200.71 1056.865 L 1305.99 996.021 L 1414.383 1058.542 Z M 1194.842 1053.511 L 1098.186 997.578 L 1203.465 936.734 L 1300.241 992.667 L 1194.842 1053.511 Z M 1189.093 1056.865 L 1089.323 1114.355 L 992.667 1058.542 L 1092.317 1000.931 L 1189.093 1056.865 Z M 986.798 1055.188 L 878.405 992.667 L 978.175 935.057 L 1086.448 997.578 L 986.798 1055.188 Z M 981.049 1058.542 L 875.65 1119.385 L 767.257 1056.865 L 872.656 996.021 L 981.049 1058.542 Z M 972.306 1181.906 L 872.656 1239.516 L 775.88 1183.703 L 875.65 1126.093 L 972.306 1181.906 Z M 981.049 1308.744 L 875.65 1369.588 L 767.257 1307.068 L 872.656 1246.224 L 981.049 1308.744 Z M 972.306 1432.229 L 872.656 1489.719 L 775.88 1433.906 L 875.65 1376.296 L 972.306 1432.229 Z M 981.049 1559.067 L 875.65 1619.911 L 767.257 1557.271 L 872.656 1496.427 L 981.049 1559.067 Z M 972.306 1682.432 L 872.656 1739.922 L 775.88 1684.109 L 875.65 1626.618 L 972.306 1682.432 Z M 978.175 1685.786 L 1086.568 1748.306 L 986.798 1805.916 L 878.405 1743.276 L 978.175 1685.786 Z M 983.924 1682.432 L 1089.323 1621.588 L 1197.716 1684.109 L 1092.317 1744.953 L 983.924 1682.432 Z M 1203.465 1687.462 L 1300.241 1743.276 L 1194.842 1804.12 L 1098.186 1748.306 L 1203.465 1687.462 Z M 1209.334 1684.109 L 1308.984 1626.618 L 1405.76 1682.432 L 1306.109 1739.922 L 1209.334 1684.109 Z M 1411.508 1685.786 L 1519.902 1748.306 L 1420.252 1805.916 L 1311.859 1743.276 L 1411.508 1685.786 Z M 1417.377 1682.432 L 1522.776 1621.588 L 1631.05 1684.109 L 1525.771 1744.953 L 1417.377 1682.432 Z M 1636.919 1687.462 L 1733.694 1743.276 L 1628.295 1804.12 L 1531.52 1748.306 L 1636.919 1687.462 Z M 1642.787 1684.109 L 1742.437 1626.618 L 1839.213 1682.432 L 1739.443 1739.922 L 1642.787 1684.109 Z M 1634.044 1557.271 L 1739.443 1496.427 L 1847.836 1559.067 L 1742.437 1619.791 L 1634.044 1557.271 Z M 1642.787 1433.906 L 1742.437 1376.296 L 1839.213 1432.229 L 1739.443 1489.719 L 1642.787 1433.906 Z M 1634.044 1307.068 L 1739.443 1246.224 L 1847.836 1308.744 L 1742.437 1369.588 L 1634.044 1307.068 Z M 1642.787 1183.703 L 1742.437 1126.093 L 1839.213 1181.906 L 1739.443 1239.516 L 1642.787 1183.703 Z M 1634.044 1056.865 L 1739.443 996.021 L 1847.836 1058.542 L 1742.437 1119.385 L 1634.044 1056.865 Z M 1642.787 933.38 L 1742.437 875.89 L 1839.213 931.703 L 1739.443 989.314 L 1642.787 933.38 Z M 1636.919 930.027 L 1528.525 867.506 L 1628.295 809.896 L 1736.688 872.536 L 1636.919 930.027 Z M 1631.17 933.38 L 1525.771 994.224 L 1417.377 931.703 L 1522.776 870.859 L 1631.17 933.38 Z M 1411.508 928.35 L 1314.853 872.536 L 1420.252 811.692 L 1516.907 867.506 L 1411.508 928.35 Z M 1405.76 931.703 L 1305.99 989.314 L 1209.334 933.38 L 1308.984 875.89 L 1405.76 931.703 Z M 1203.465 930.027 L 1095.192 867.506 L 1194.842 809.896 L 1303.235 872.536 L 1203.465 930.027 Z M 1197.716 933.38 L 1092.317 994.224 L 983.924 931.703 L 1089.323 870.859 L 1197.716 933.38 Z M 978.175 928.35 L 881.399 872.536 L 986.798 811.692 L 1083.574 867.506 L 978.175 928.35 Z M 972.306 931.703 L 872.656 989.314 L 775.88 933.38 L 875.65 875.89 L 972.306 931.703 Z M 770.132 930.027 L 661.738 867.506 L 761.388 809.896 L 869.781 872.536 L 770.132 930.027 Z M 866.787 992.667 L 761.388 1053.511 L 664.732 997.578 L 770.132 936.734 L 866.787 992.667 Z M 869.781 1122.739 L 770.132 1180.349 L 661.738 1117.709 L 761.388 1060.218 L 869.781 1122.739 Z M 866.787 1242.87 L 761.388 1303.714 L 664.732 1247.901 L 770.132 1187.057 L 866.787 1242.87 Z M 869.781 1372.942 L 770.132 1430.552 L 661.738 1368.031 L 761.388 1310.421 L 869.781 1372.942 Z M 866.787 1493.073 L 761.388 1553.917 L 664.732 1498.103 L 770.132 1437.259 L 866.787 1493.073 Z M 869.781 1623.265 L 770.132 1680.755 L 661.738 1618.234 L 761.388 1560.624 L 869.781 1623.265 Z M 866.787 1743.276 L 761.388 1804.12 L 664.732 1748.306 L 770.132 1687.462 L 866.787 1743.276 Z M 869.781 1873.468 L 770.132 1930.958 L 661.738 1868.437 L 761.388 1810.827 L 869.781 1873.468 Z M 767.257 1807.474 L 872.656 1746.63 L 981.049 1809.27 L 875.65 1870.114 L 767.257 1807.474 Z M 986.798 1812.624 L 1083.574 1868.437 L 978.175 1929.281 L 881.399 1873.468 L 986.798 1812.624 Z M 992.667 1809.27 L 1092.317 1751.66 L 1189.093 1807.474 L 1089.323 1865.084 L 992.667 1809.27 Z M 1194.842 1810.947 L 1303.235 1873.468 L 1203.465 1930.958 L 1095.192 1868.437 L 1194.842 1810.947 Z M 1200.71 1807.474 L 1306.109 1746.63 L 1414.383 1809.27 L 1308.984 1870.114 L 1200.71 1807.474 Z M 1420.252 1812.624 L 1516.907 1868.437 L 1411.508 1929.281 L 1314.853 1873.468 L 1420.252 1812.624 Z M 1426.001 1809.27 L 1525.771 1751.66 L 1622.426 1807.474 L 1522.776 1865.084 L 1426.001 1809.27 Z M 1628.295 1810.947 L 1736.688 1873.468 L 1636.919 1930.958 L 1528.525 1868.437 L 1628.295 1810.947 Z M 1634.044 1807.474 L 1739.443 1746.63 L 1847.836 1809.27 L 1742.437 1870.114 L 1634.044 1807.474 Z M 1853.585 1812.624 L 1950.361 1868.437 L 1844.962 1929.281 L 1748.306 1873.468 L 1853.585 1812.624 Z M 1745.312 1743.276 L 1844.962 1685.786 L 1953.355 1748.306 L 1853.585 1805.916 L 1745.312 1743.276 Z M 1748.306 1623.265 L 1853.585 1562.421 L 1950.361 1618.234 L 1844.962 1679.078 L 1748.306 1623.265 Z M 1745.312 1493.073 L 1844.962 1435.583 L 1953.355 1498.103 L 1853.585 1555.594 L 1745.312 1493.073 Z M 1748.306 1372.942 L 1853.585 1312.098 L 1950.361 1368.031 L 1844.962 1428.875 L 1748.306 1372.942 Z M 1745.312 1242.87 L 1844.962 1185.26 L 1953.355 1247.901 L 1853.585 1305.391 L 1745.312 1242.87 Z M 1748.306 1122.739 L 1853.585 1061.895 L 1950.361 1117.709 L 1844.962 1178.553 L 1748.306 1122.739 Z M 1745.312 992.667 L 1844.962 935.057 L 1953.355 997.578 L 1853.585 1055.188 L 1745.312 992.667 Z M 1748.306 872.536 L 1853.585 811.692 L 1950.361 867.506 L 1844.962 928.35 L 1748.306 872.536 Z M 1745.312 742.344 L 1844.962 684.854 L 1953.355 747.375 L 1853.585 804.985 L 1745.312 742.344 Z M 1847.836 808.339 L 1742.437 869.183 L 1634.044 806.542 L 1739.443 745.698 L 1847.836 808.339 Z M 1628.295 803.188 L 1531.52 747.375 L 1636.919 686.531 L 1733.694 742.344 L 1628.295 803.188 Z M 1622.426 806.542 L 1522.776 864.152 L 1426.001 808.339 L 1525.771 750.728 L 1622.426 806.542 Z M 1420.252 804.985 L 1311.859 742.344 L 1411.508 684.854 L 1519.902 747.375 L 1420.252 804.985 Z M 1414.383 808.339 L 1308.984 869.183 L 1200.71 806.542 L 1305.99 745.698 L 1414.383 808.339 Z M 1194.842 803.188 L 1098.186 747.375 L 1203.585 686.531 L 1300.241 742.344 L 1194.842 803.188 Z M 1189.093 806.542 L 1089.323 864.152 L 992.667 808.339 L 1092.317 750.728 L 1189.093 806.542 Z M 986.798 804.985 L 878.405 742.344 L 978.175 684.854 L 1086.568 747.375 L 986.798 804.985 Z M 981.049 808.339 L 875.65 869.183 L 767.257 806.542 L 872.656 745.698 L 981.049 808.339 Z M 761.388 803.188 L 664.732 747.375 L 770.132 686.531 L 866.787 742.344 L 761.388 803.188 Z M 755.639 806.542 L 655.869 864.152 L 559.214 808.339 L 658.864 750.728 L 755.639 806.542 Z M 764.263 933.38 L 658.864 994.224 L 550.59 931.703 L 655.869 870.859 L 764.263 933.38 Z M 755.639 1056.865 L 655.869 1114.355 L 559.214 1058.542 L 658.864 1000.931 L 755.639 1056.865 Z M 764.263 1183.703 L 658.864 1244.547 L 550.59 1181.906 L 655.869 1121.062 L 764.263 1183.703 Z M 755.639 1307.068 L 655.869 1364.558 L 559.214 1308.744 L 658.864 1251.254 L 755.639 1307.068 Z M 764.263 1433.906 L 658.864 1494.75 L 550.59 1432.229 L 655.869 1371.385 L 764.263 1433.906 Z M 755.639 1557.271 L 655.869 1614.881 L 559.214 1559.067 L 658.864 1501.457 L 755.639 1557.271 Z M 764.263 1684.109 L 658.864 1744.953 L 550.59 1682.432 L 655.869 1621.588 L 764.263 1684.109 Z M 755.639 1807.474 L 655.869 1865.084 L 559.214 1809.27 L 658.864 1751.66 L 755.639 1807.474 Z M 764.263 1934.312 L 658.864 1995.156 L 550.59 1932.635 L 655.869 1871.791 L 764.263 1934.312 Z M 770.132 1937.785 L 866.787 1993.599 L 761.388 2054.442 L 664.732 1998.509 L 770.132 1937.785 Z M 775.88 1934.312 L 875.65 1876.821 L 972.306 1932.635 L 872.656 1990.245 L 775.88 1934.312 Z M 978.175 1935.988 L 1086.448 1998.509 L 986.798 2056.119 L 878.405 1993.599 L 978.175 1935.988 Z M 983.924 1932.635 L 1089.323 1871.791 L 1197.716 1934.312 L 1092.317 1995.156 L 983.924 1932.635 Z M 1203.465 1937.785 L 1300.241 1993.599 L 1194.842 2054.442 L 1098.186 1998.509 L 1203.465 1937.785 Z M 1209.334 1934.312 L 1308.984 1876.821 L 1405.76 1932.635 L 1305.99 1990.245 L 1209.334 1934.312 Z M 1411.508 1935.988 L 1519.902 1998.509 L 1420.252 2056.119 L 1311.859 1993.599 L 1411.508 1935.988 Z M 1417.377 1932.635 L 1522.776 1871.791 L 1631.17 1934.312 L 1525.771 1995.156 L 1417.377 1932.635 Z M 1636.919 1937.785 L 1733.694 1993.599 L 1628.295 2054.442 L 1531.52 1998.509 L 1636.919 1937.785 Z M 1642.787 1934.312 L 1742.437 1876.821 L 1839.213 1932.635 L 1739.443 1990.245 L 1642.787 1934.312 Z M 1844.962 1935.988 L 1953.355 1998.509 L 1853.585 2056.119 L 1745.312 1993.599 L 1844.962 1935.988 Z M 1850.831 1932.635 L 1956.23 1871.791 L 2064.503 1934.312 L 1959.104 1995.156 L 1850.831 1932.635 Z M 1859.454 1809.27 L 1959.224 1751.66 L 2055.88 1807.474 L 1956.23 1865.084 L 1859.454 1809.27 Z M 1850.831 1682.432 L 1956.23 1621.588 L 2064.503 1684.109 L 1959.224 1744.953 L 1850.831 1682.432 Z M 1859.454 1559.067 L 1959.104 1501.457 L 2055.88 1557.271 L 1956.23 1614.881 L 1859.454 1559.067 Z M 1850.831 1432.229 L 1956.23 1371.385 L 2064.503 1433.906 L 1959.104 1494.75 L 1850.831 1432.229 Z M 1859.454 1308.744 L 1959.104 1251.254 L 2055.88 1307.068 L 1956.23 1364.678 L 1859.454 1308.744 Z M 1850.831 1181.906 L 1956.11 1121.062 L 2064.503 1183.703 L 1959.104 1244.547 L 1850.831 1181.906 Z M 1859.454 1058.542 L 1959.104 1000.931 L 2055.88 1056.865 L 1956.11 1114.355 L 1859.454 1058.542 Z M 1850.831 931.703 L 1956.23 870.859 L 2064.503 933.38 L 1959.104 994.224 L 1850.831 931.703 Z M 1859.454 808.339 L 1959.104 750.728 L 2055.88 806.542 L 1956.23 864.152 L 1859.454 808.339 Z M 1850.831 681.5 L 1956.23 620.656 L 2064.503 683.177 L 1959.104 744.021 L 1850.831 681.5 Z M 1844.962 678.147 L 1748.306 622.214 L 1853.585 561.37 L 1950.361 617.303 L 1844.962 678.147 Z M 1839.213 681.5 L 1739.443 738.991 L 1642.787 683.177 L 1742.437 625.567 L 1839.213 681.5 Z M 1636.919 679.824 L 1528.525 617.303 L 1628.295 559.693 L 1736.688 622.214 L 1636.919 679.824 Z M 1631.17 683.177 L 1525.771 744.021 L 1417.377 681.5 L 1522.776 620.656 L 1631.17 683.177 Z M 1411.508 678.147 L 1314.853 622.214 L 1420.252 561.489 L 1516.907 617.303 L 1411.508 678.147 Z M 1405.76 681.5 L 1305.99 738.991 L 1209.334 683.177 L 1308.984 625.687 L 1405.76 681.5 Z M 1203.585 679.824 L 1095.192 617.303 L 1194.842 559.693 L 1303.235 622.214 L 1203.585 679.824 Z M 1197.716 683.177 L 1092.317 744.021 L 983.924 681.5 L 1089.323 620.656 L 1197.716 683.177 Z M 978.175 678.147 L 881.399 622.214 L 986.798 561.37 L 1083.574 617.303 L 978.175 678.147 Z M 972.306 681.5 L 872.656 738.991 L 775.88 683.177 L 875.65 625.687 L 972.306 681.5 Z M 770.132 679.824 L 661.738 617.303 L 761.388 559.693 L 869.781 622.214 L 770.132 679.824 Z M 764.263 683.177 L 658.864 744.021 L 550.59 681.5 L 655.869 620.656 L 764.263 683.177 Z M 544.721 678.147 L 448.066 622.214 L 553.345 561.489 L 650.12 617.303 L 544.721 678.147 Z M 653.115 747.375 L 553.345 804.985 L 445.071 742.344 L 544.721 684.854 L 653.115 747.375 Z M 650.12 867.506 L 544.721 928.35 L 448.066 872.536 L 553.345 811.692 L 650.12 867.506 Z M 653.115 997.578 L 553.345 1055.188 L 445.071 992.667 L 544.721 935.057 L 653.115 997.578 Z M 650.12 1117.709 L 544.721 1178.553 L 448.066 1122.739 L 553.345 1061.895 L 650.12 1117.709 Z M 653.115 1247.901 L 553.345 1305.391 L 445.071 1242.87 L 544.721 1185.26 L 653.115 1247.901 Z M 650.12 1368.031 L 544.721 1428.756 L 448.066 1372.942 L 553.345 1312.098 L 650.12 1368.031 Z M 653.115 1498.103 L 553.345 1555.714 L 445.071 1493.073 L 544.721 1435.583 L 653.115 1498.103 Z M 650.12 1618.234 L 544.721 1679.078 L 448.066 1623.265 L 553.345 1562.421 L 650.12 1618.234 Z M 653.115 1748.306 L 553.345 1805.916 L 445.071 1743.276 L 544.721 1685.786 L 653.115 1748.306 Z M 650.12 1868.437 L 544.721 1929.281 L 448.066 1873.468 L 553.345 1812.624 L 650.12 1868.437 Z M 653.115 1998.509 L 553.345 2056.119 L 445.071 1993.599 L 544.721 1935.988 L 653.115 1998.509 Z M 650.12 2118.64 L 544.721 2179.484 L 448.066 2123.67 L 553.345 2062.826 L 650.12 2118.64 Z M 559.214 2059.473 L 658.864 2001.982 L 755.639 2057.796 L 655.869 2115.286 L 559.214 2059.473 Z M 761.388 2061.15 L 869.781 2123.67 L 770.132 2181.281 L 661.738 2118.64 L 761.388 2061.15 Z M 767.257 2057.796 L 872.656 1996.952 L 981.049 2059.473 L 875.65 2120.317 L 767.257 2057.796 Z M 986.798 2062.826 L 1083.574 2118.64 L 978.175 2179.484 L 881.399 2123.67 L 986.798 2062.826 Z M 992.667 2059.473 L 1092.317 2001.863 L 1189.093 2057.796 L 1089.323 2115.286 L 992.667 2059.473 Z M 1194.842 2061.15 L 1303.235 2123.67 L 1203.585 2181.281 L 1095.192 2118.64 L 1194.842 2061.15 Z M 1200.71 2057.796 L 1305.99 1996.952 L 1414.383 2059.473 L 1308.984 2120.317 L 1200.71 2057.796 Z M 1420.252 2062.826 L 1516.907 2118.64 L 1411.508 2179.484 L 1314.853 2123.67 L 1420.252 2062.826 Z M 1426.001 2059.473 L 1525.771 2001.982 L 1622.426 2057.796 L 1522.776 2115.286 L 1426.001 2059.473 Z M 1628.295 2061.15 L 1736.688 2123.67 L 1636.919 2181.281 L 1528.525 2118.64 L 1628.295 2061.15 Z M 1634.044 2057.796 L 1739.443 1996.952 L 1847.836 2059.473 L 1742.437 2120.317 L 1634.044 2057.796 Z M 1853.585 2062.826 L 1950.361 2118.64 L 1844.962 2179.484 L 1748.306 2123.67 L 1853.585 2062.826 Z M 1859.454 2059.473 L 1959.104 2001.982 L 2055.88 2057.796 L 1956.23 2115.286 L 1859.454 2059.473 Z M 2061.629 2061.15 L 2170.022 2123.67 L 2070.372 2181.281 L 1961.979 2118.64 L 2061.629 2061.15 Z M 1964.973 1998.509 L 2070.372 1937.785 L 2167.028 1993.599 L 2061.629 2054.442 L 1964.973 1998.509 Z M 1961.979 1868.437 L 2061.749 1810.827 L 2170.022 1873.468 L 2070.372 1930.958 L 1961.979 1868.437 Z M 1964.973 1748.306 L 2070.372 1687.462 L 2167.028 1743.276 L 2061.749 1804.12 L 1964.973 1748.306 Z M 1961.979 1618.234 L 2061.629 1560.624 L 2170.022 1623.265 L 2070.372 1680.755 L 1961.979 1618.234 Z M 1964.973 1498.103 L 2070.372 1437.259 L 2167.028 1493.073 L 2061.629 1553.917 L 1964.973 1498.103 Z M 1961.979 1368.031 L 2061.629 1310.421 L 2170.022 1372.942 L 2070.372 1430.552 L 1961.979 1368.031 Z M 1964.973 1247.901 L 2070.372 1187.057 L 2167.028 1242.87 L 2061.629 1303.714 L 1964.973 1247.901 Z M 1961.979 1117.709 L 2061.629 1060.218 L 2170.022 1122.739 L 2070.372 1180.349 L 1961.979 1117.709 Z M 1964.973 997.578 L 2070.372 936.734 L 2167.028 992.667 L 2061.629 1053.511 L 1964.973 997.578 Z M 1961.979 867.506 L 2061.749 809.896 L 2170.022 872.536 L 2070.372 930.027 L 1961.979 867.506 Z M 1964.973 747.375 L 2070.372 686.531 L 2167.028 742.344 L 2061.749 803.188 L 1964.973 747.375 Z M 1961.979 617.303 L 2061.629 559.693 L 2170.022 622.214 L 2070.372 679.824 L 1961.979 617.303 Z M 1964.973 497.172 L 2070.372 436.328 L 2167.028 492.142 L 2061.629 552.986 L 1964.973 497.172 Z M 2055.88 556.339 L 1956.23 613.949 L 1859.454 558.016 L 1959.104 500.526 L 2055.88 556.339 Z M 1853.585 554.662 L 1745.312 492.142 L 1844.962 434.531 L 1953.355 497.172 L 1853.585 554.662 Z M 1847.836 558.016 L 1742.437 618.86 L 1634.044 556.339 L 1739.443 495.495 L 1847.836 558.016 Z M 1628.295 552.986 L 1531.52 497.172 L 1636.919 436.328 L 1733.694 492.142 L 1628.295 552.986 Z M 1622.426 556.339 L 1522.776 613.949 L 1426.001 558.016 L 1525.771 500.526 L 1622.426 556.339 Z M 1420.252 554.662 L 1311.859 492.142 L 1411.508 434.531 L 1519.902 497.172 L 1420.252 554.662 Z M 1414.383 558.016 L 1308.984 618.86 L 1200.71 556.339 L 1305.99 495.495 L 1414.383 558.016 Z M 1194.842 552.986 L 1098.186 497.172 L 1203.465 436.328 L 1300.241 492.142 L 1194.842 552.986 Z M 1188.973 556.339 L 1089.323 613.949 L 992.667 558.016 L 1092.317 500.526 L 1188.973 556.339 Z M 986.798 554.662 L 878.405 492.142 L 978.175 434.651 L 1086.448 497.172 L 986.798 554.662 Z M 981.049 558.016 L 875.65 618.86 L 767.257 556.339 L 872.656 495.495 L 981.049 558.016 Z M 761.388 552.986 L 664.732 497.172 L 770.132 436.328 L 866.787 492.142 L 761.388 552.986 Z M 755.639 556.339 L 655.869 613.949 L 559.214 558.016 L 658.864 500.526 L 755.639 556.339 Z M 553.345 554.662 L 445.071 492.142 L 544.721 434.531 L 653.115 497.172 L 553.345 554.662 Z M 547.596 558.016 L 442.197 618.86 L 333.803 556.339 L 439.202 495.495 L 547.596 558.016 Z M 538.972 681.5 L 439.202 738.991 L 342.547 683.177 L 442.197 625.687 L 538.972 681.5 Z M 547.596 808.339 L 442.197 869.183 L 333.803 806.542 L 439.202 745.698 L 547.596 808.339 Z M 538.972 931.703 L 439.202 989.314 L 342.547 933.38 L 442.197 875.89 L 538.972 931.703 Z M 547.596 1058.542 L 442.197 1119.385 L 333.803 1056.865 L 439.202 996.021 L 547.596 1058.542 Z M 538.853 1181.906 L 439.202 1239.516 L 342.547 1183.703 L 442.197 1126.093 L 538.853 1181.906 Z M 547.596 1308.744 L 442.197 1369.588 L 333.803 1307.068 L 439.202 1246.224 L 547.596 1308.744 Z M 538.972 1432.229 L 439.202 1489.719 L 342.547 1433.906 L 442.197 1376.296 L 538.972 1432.229 Z M 547.596 1559.067 L 442.197 1619.911 L 333.803 1557.271 L 439.202 1496.427 L 547.596 1559.067 Z M 538.972 1682.432 L 439.202 1739.922 L 342.547 1684.109 L 442.197 1626.618 L 538.972 1682.432 Z M 547.596 1809.27 L 442.197 1870.114 L 333.803 1807.474 L 439.202 1746.63 L 547.596 1809.27 Z M 538.853 1932.635 L 439.202 1990.245 L 342.547 1934.312 L 442.197 1876.821 L 538.853 1932.635 Z M 547.596 2059.473 L 442.197 2120.317 L 333.803 2057.796 L 439.202 1996.952 L 547.596 2059.473 Z M 538.972 2182.838 L 439.202 2240.448 L 342.547 2184.634 L 442.197 2127.024 L 538.972 2182.838 Z M 544.721 2186.191 L 653.115 2248.832 L 553.345 2306.322 L 445.071 2243.801 L 544.721 2186.191 Z M 550.59 2182.838 L 655.869 2121.994 L 764.263 2184.634 L 658.864 2245.478 L 550.59 2182.838 Z M 770.132 2187.988 L 866.787 2243.801 L 761.388 2304.645 L 664.732 2248.832 L 770.132 2187.988 Z M 775.88 2184.634 L 875.65 2127.024 L 972.306 2182.838 L 872.656 2240.448 L 775.88 2184.634 Z M 978.175 2186.191 L 1086.568 2248.832 L 986.798 2306.322 L 878.405 2243.801 L 978.175 2186.191 Z M 983.924 2182.838 L 1089.323 2121.994 L 1197.716 2184.634 L 1092.317 2245.478 L 983.924 2182.838 Z M 1203.585 2187.988 L 1300.241 2243.801 L 1194.842 2304.645 L 1098.186 2248.832 L 1203.585 2187.988 Z M 1209.334 2184.634 L 1308.984 2127.024 L 1405.76 2182.838 L 1306.109 2240.448 L 1209.334 2184.634 Z M 1411.508 2186.191 L 1519.902 2248.832 L 1420.252 2306.322 L 1311.859 2243.801 L 1411.508 2186.191 Z M 1417.377 2182.838 L 1522.776 2121.994 L 1631.05 2184.634 L 1525.771 2245.478 L 1417.377 2182.838 Z M 1636.919 2187.988 L 1733.694 2243.801 L 1628.295 2304.645 L 1531.52 2248.832 L 1636.919 2187.988 Z M 1642.787 2184.634 L 1742.437 2127.024 L 1839.213 2182.838 L 1739.443 2240.448 L 1642.787 2184.634 Z M 1844.962 2186.191 L 1953.355 2248.832 L 1853.585 2306.322 L 1745.312 2243.801 L 1844.962 2186.191 Z M 1850.831 2182.838 L 1956.23 2121.994 L 2064.503 2184.634 L 1959.104 2245.478 L 1850.831 2182.838 Z M 2070.372 2187.988 L 2167.028 2243.801 L 2061.749 2304.645 L 1964.973 2248.832 L 2070.372 2187.988 Z M 2076.121 2184.634 L 2175.891 2127.024 L 2272.547 2182.838 L 2172.896 2240.448 L 2076.121 2184.634 Z M 2067.498 2057.796 L 2172.896 1996.952 L 2281.29 2059.473 L 2175.891 2120.317 L 2067.498 2057.796 Z M 2076.121 1934.312 L 2175.891 1876.821 L 2272.547 1932.635 L 2172.896 1990.245 L 2076.121 1934.312 Z M 2067.498 1807.474 L 2172.896 1746.63 L 2281.29 1809.27 L 2175.891 1870.114 L 2067.498 1807.474 Z M 2076.121 1684.109 L 2175.891 1626.618 L 2272.547 1682.432 L 2172.896 1739.922 L 2076.121 1684.109 Z M 2067.498 1557.271 L 2172.896 1496.427 L 2281.29 1559.067 L 2175.891 1619.911 L 2067.498 1557.271 Z M 2076.121 1433.906 L 2175.891 1376.296 L 2272.547 1432.229 L 2172.896 1489.719 L 2076.121 1433.906 Z M 2067.498 1307.068 L 2172.896 1246.224 L 2281.29 1308.744 L 2175.891 1369.588 L 2067.498 1307.068 Z M 2076.121 1183.703 L 2175.891 1126.093 L 2272.547 1181.906 L 2172.896 1239.516 L 2076.121 1183.703 Z M 2067.498 1056.865 L 2172.896 996.021 L 2281.29 1058.542 L 2175.891 1119.385 L 2067.498 1056.865 Z M 2076.121 933.38 L 2175.891 875.89 L 2272.547 931.703 L 2172.896 989.314 L 2076.121 933.38 Z M 2067.498 806.542 L 2172.896 745.698 L 2281.29 808.339 L 2175.891 869.183 L 2067.498 806.542 Z M 2076.121 683.177 L 2175.891 625.687 L 2272.547 681.5 L 2172.896 738.991 L 2076.121 683.177 Z M 2067.498 556.339 L 2172.896 495.495 L 2281.29 558.016 L 2175.891 618.86 L 2067.498 556.339 Z M 2076.121 432.974 L 2175.891 375.364 L 2272.547 431.178 L 2172.896 488.788 L 2076.121 432.974 Z M 2070.372 429.621 L 1961.979 366.98 L 2061.629 309.49 L 2170.022 372.011 L 2070.372 429.621 Z M 2064.503 432.974 L 1959.104 493.818 L 1850.831 431.178 L 1956.11 370.334 L 2064.503 432.974 Z M 1844.962 427.824 L 1748.306 372.011 L 1853.585 311.167 L 1950.361 366.98 L 1844.962 427.824 Z M 1839.213 431.178 L 1739.443 488.788 L 1642.787 432.974 L 1742.437 375.364 L 1839.213 431.178 Z M 1636.919 429.621 L 1528.525 366.98 L 1628.295 309.49 L 1736.688 372.011 L 1636.919 429.621 Z M 1631.17 432.974 L 1525.771 493.818 L 1417.377 431.178 L 1522.776 370.334 L 1631.17 432.974 Z M 1411.508 427.824 L 1314.853 372.011 L 1420.252 311.167 L 1516.907 366.98 L 1411.508 427.824 Z M 1405.76 431.178 L 1305.99 488.788 L 1209.334 432.974 L 1308.984 375.364 L 1405.76 431.178 Z M 1203.465 429.621 L 1095.192 366.98 L 1194.842 309.49 L 1303.235 372.011 L 1203.465 429.621 Z M 1197.716 432.974 L 1092.317 493.818 L 983.924 431.178 L 1089.323 370.334 L 1197.716 432.974 Z M 978.175 427.824 L 881.399 372.011 L 986.798 311.167 L 1083.574 366.98 L 978.175 427.824 Z M 972.306 431.178 L 872.656 488.788 L 775.88 432.974 L 875.65 375.364 L 972.306 431.178 Z M 770.132 429.621 L 661.738 366.98 L 761.388 309.49 L 869.781 372.011 L 770.132 429.621 Z M 764.263 432.974 L 658.864 493.818 L 550.59 431.178 L 655.869 370.334 L 764.263 432.974 Z M 544.721 427.824 L 448.066 372.011 L 553.345 311.167 L 650.12 366.98 L 544.721 427.824 Z M 538.853 431.178 L 439.202 488.788 L 342.547 432.974 L 442.197 375.364 L 538.853 431.178 Z M 336.678 429.621 L 228.285 366.98 L 328.054 309.49 L 436.328 372.011 L 336.678 429.621 Z M 433.334 492.142 L 328.054 552.986 L 231.279 497.172 L 336.678 436.328 L 433.334 492.142 Z M 436.328 622.214 L 336.678 679.824 L 228.285 617.303 L 328.054 559.693 L 436.328 622.214 Z M 433.453 742.344 L 328.054 803.188 L 231.279 747.375 L 336.678 686.531 L 433.453 742.344 Z M 436.328 872.536 L 336.678 930.027 L 228.285 867.506 L 328.054 809.896 L 436.328 872.536 Z M 433.334 992.667 L 328.054 1053.511 L 231.279 997.578 L 336.678 936.734 L 433.334 992.667 Z M 436.328 1122.739 L 336.678 1180.349 L 228.285 1117.709 L 328.054 1060.218 L 436.328 1122.739 Z M 433.453 1242.87 L 328.054 1303.714 L 231.279 1247.901 L 336.678 1187.057 L 433.453 1242.87 Z M 436.328 1372.942 L 336.678 1430.552 L 228.285 1368.031 L 328.054 1310.421 L 436.328 1372.942 Z M 433.453 1493.073 L 328.054 1553.917 L 231.279 1498.103 L 336.678 1437.259 L 433.453 1493.073 Z M 436.328 1623.265 L 336.678 1680.755 L 228.285 1618.234 L 328.054 1560.624 L 436.328 1623.265 Z M 433.453 1743.276 L 328.054 1804.12 L 231.279 1748.306 L 336.678 1687.462 L 433.453 1743.276 Z M 436.328 1873.468 L 336.678 1930.958 L 228.285 1868.437 L 328.054 1810.947 L 436.328 1873.468 Z M 433.334 1993.599 L 328.054 2054.442 L 231.279 1998.509 L 336.678 1937.785 L 433.334 1993.599 Z M 436.328 2123.67 L 336.678 2181.281 L 228.285 2118.64 L 328.054 2061.15 L 436.328 2123.67 Z M 433.453 2243.801 L 328.054 2304.645 L 231.279 2248.832 L 336.678 2187.988 L 433.453 2243.801 Z M 436.328 2373.873 L 336.678 2431.483 L 228.285 2368.963 L 328.054 2311.353 L 436.328 2373.873 Z M 333.803 2307.999 L 439.202 2247.155 L 547.596 2309.676 L 442.197 2370.52 L 333.803 2307.999 Z M 553.345 2313.029 L 650.12 2368.963 L 544.721 2429.807 L 448.066 2373.873 L 553.345 2313.029 Z M 559.214 2309.676 L 658.864 2252.185 L 755.639 2307.999 L 655.869 2365.609 L 559.214 2309.676 Z M 761.388 2311.353 L 869.781 2373.873 L 770.132 2431.483 L 661.738 2368.963 L 761.388 2311.353 Z M 767.257 2307.999 L 872.656 2247.155 L 981.049 2309.676 L 875.65 2370.52 L 767.257 2307.999 Z M 986.798 2313.029 L 1083.574 2368.963 L 978.175 2429.807 L 881.399 2373.873 L 986.798 2313.029 Z M 992.667 2309.676 L 1092.317 2252.185 L 1189.093 2307.999 L 1089.323 2365.609 L 992.667 2309.676 Z M 1194.842 2311.353 L 1303.235 2373.873 L 1203.465 2431.483 L 1095.192 2368.963 L 1194.842 2311.353 Z M 1200.71 2307.999 L 1306.109 2247.155 L 1414.383 2309.676 L 1308.984 2370.52 L 1200.71 2307.999 Z M 1420.252 2313.029 L 1516.907 2368.963 L 1411.508 2429.807 L 1314.853 2373.873 L 1420.252 2313.029 Z M 1426.001 2309.676 L 1525.771 2252.185 L 1622.426 2307.999 L 1522.776 2365.609 L 1426.001 2309.676 Z M 1628.295 2311.353 L 1736.688 2373.873 L 1636.919 2431.483 L 1528.525 2368.963 L 1628.295 2311.353 Z M 1634.044 2307.999 L 1739.443 2247.155 L 1847.836 2309.676 L 1742.437 2370.52 L 1634.044 2307.999 Z M 1853.585 2313.029 L 1950.361 2368.963 L 1844.962 2429.807 L 1748.306 2373.873 L 1853.585 2313.029 Z M 1859.454 2309.676 L 1959.104 2252.185 L 2055.88 2307.999 L 1956.23 2365.609 L 1859.454 2309.676 Z M 2061.749 2311.353 L 2170.022 2373.873 L 2070.372 2431.483 L 1961.979 2368.963 L 2061.749 2311.353 Z M 2067.498 2307.999 L 2172.896 2247.155 L 2281.29 2309.676 L 2175.891 2370.52 L 2067.498 2307.999 Z M 2287.039 2313.029 L 2383.814 2368.963 L 2278.415 2429.807 L 2181.64 2373.873 L 2287.039 2313.029 Z M 2178.646 2243.801 L 2278.415 2186.191 L 2386.809 2248.832 L 2287.039 2306.322 L 2178.646 2243.801 Z M 2181.64 2123.67 L 2287.039 2062.826 L 2383.814 2118.64 L 2278.415 2179.484 L 2181.64 2123.67 Z M 2178.646 1993.599 L 2278.415 1935.988 L 2386.809 1998.509 L 2287.039 2056.119 L 2178.646 1993.599 Z M 2181.64 1873.468 L 2287.039 1812.624 L 2383.814 1868.437 L 2278.415 1929.281 L 2181.64 1873.468 Z M 2178.646 1743.276 L 2278.415 1685.786 L 2386.689 1748.306 L 2287.039 1805.916 L 2178.646 1743.276 Z M 2181.64 1623.265 L 2287.039 1562.421 L 2383.814 1618.234 L 2278.415 1679.078 L 2181.64 1623.265 Z M 2178.646 1493.073 L 2278.415 1435.583 L 2386.809 1498.103 L 2287.039 1555.714 L 2178.646 1493.073 Z M 2181.64 1372.942 L 2287.039 1312.098 L 2383.814 1368.031 L 2278.415 1428.756 L 2181.64 1372.942 Z M 2178.646 1242.87 L 2278.415 1185.26 L 2386.689 1247.901 L 2287.039 1305.391 L 2178.646 1242.87 Z M 2181.64 1122.739 L 2287.039 1061.895 L 2383.814 1117.709 L 2278.415 1178.553 L 2181.64 1122.739 Z M 2178.646 992.667 L 2278.415 935.057 L 2386.809 997.578 L 2287.039 1055.188 L 2178.646 992.667 Z M 2181.64 872.536 L 2287.039 811.692 L 2383.814 867.506 L 2278.415 928.35 L 2181.64 872.536 Z M 2178.646 742.344 L 2278.415 684.854 L 2386.809 747.375 L 2287.039 804.985 L 2178.646 742.344 Z M 2181.64 622.214 L 2287.039 561.489 L 2383.814 617.303 L 2278.415 678.147 L 2181.64 622.214 Z M 2178.646 492.142 L 2278.415 434.531 L 2386.809 497.172 L 2287.039 554.662 L 2178.646 492.142 Z M 2181.64 372.011 L 2287.039 311.167 L 2383.814 366.98 L 2278.415 427.824 L 2181.64 372.011 Z M 2178.646 241.939 L 2278.415 184.329 L 2386.809 246.969 L 2287.039 304.459 L 2178.646 241.939 Z M 2281.29 307.813 L 2175.891 368.657 L 2067.498 306.136 L 2172.896 245.292 L 2281.29 307.813 Z M 2061.629 302.783 L 1964.973 246.969 L 2070.372 186.125 L 2167.028 241.939 L 2061.629 302.783 Z M 2055.88 306.136 L 1956.11 363.627 L 1859.454 307.813 L 1959.224 250.323 L 2055.88 306.136 Z M 1853.585 304.459 L 1745.312 241.939 L 1844.962 184.329 L 1953.355 246.969 L 1853.585 304.459 Z M 1847.836 307.813 L 1742.437 368.657 L 1634.044 306.136 L 1739.443 245.292 L 1847.836 307.813 Z M 1628.295 302.783 L 1531.52 246.969 L 1636.919 186.125 L 1733.694 241.939 L 1628.295 302.783 Z M 1622.426 306.136 L 1522.776 363.627 L 1426.001 307.813 L 1525.771 250.323 L 1622.426 306.136 Z M 1420.252 304.459 L 1311.859 241.939 L 1411.508 184.329 L 1519.902 246.969 L 1420.252 304.459 Z M 1414.383 307.813 L 1308.984 368.657 L 1200.71 306.136 L 1306.109 245.292 L 1414.383 307.813 Z M 1194.842 302.783 L 1098.186 246.969 L 1203.465 186.125 L 1300.241 241.939 L 1194.842 302.783 Z M 1189.093 306.136 L 1089.323 363.627 L 992.667 307.813 L 1092.317 250.323 L 1189.093 306.136 Z M 986.798 304.459 L 878.405 241.939 L 978.175 184.329 L 1086.568 246.969 L 986.798 304.459 Z M 981.049 307.813 L 875.65 368.657 L 767.257 306.136 L 872.656 245.292 L 981.049 307.813 Z M 761.388 302.783 L 664.732 246.969 L 770.132 186.125 L 866.787 241.939 L 761.388 302.783 Z M 755.639 306.136 L 655.869 363.627 L 559.214 307.813 L 658.864 250.323 L 755.639 306.136 Z M 553.345 304.459 L 445.071 241.939 L 544.721 184.329 L 653.115 246.969 L 553.345 304.459 Z M 547.596 307.813 L 442.197 368.657 L 333.803 306.136 L 439.202 245.292 L 547.596 307.813 Z M 328.054 302.783 L 231.279 246.969 L 336.678 186.125 L 433.453 241.939 L 328.054 302.783 Z M 322.186 306.136 L 222.536 363.627 L 125.76 307.813 L 225.53 250.323 L 322.186 306.136 Z M 330.809 432.974 L 225.53 493.818 L 117.137 431.178 L 222.536 370.334 L 330.809 432.974 Z M 322.186 556.339 L 222.536 613.949 L 125.76 558.016 L 225.53 500.526 L 322.186 556.339 Z M 330.929 683.177 L 225.53 744.021 L 117.137 681.5 L 222.536 620.656 L 330.929 683.177 Z M 322.186 806.542 L 222.536 864.152 L 125.76 808.339 L 225.53 750.728 L 322.186 806.542 Z M 330.809 933.38 L 225.53 994.224 L 117.137 931.703 L 222.536 870.859 L 330.809 933.38 Z M 322.186 1056.865 L 222.536 1114.355 L 125.76 1058.542 L 225.53 1000.931 L 322.186 1056.865 Z M 330.929 1183.703 L 225.53 1244.547 L 117.137 1181.906 L 222.536 1121.062 L 330.929 1183.703 Z M 322.186 1307.068 L 222.536 1364.558 L 125.76 1308.744 L 225.53 1251.254 L 322.186 1307.068 Z M 330.809 1433.906 L 225.53 1494.75 L 117.137 1432.229 L 222.536 1371.385 L 330.809 1433.906 Z M 322.186 1557.271 L 222.536 1614.881 L 125.76 1559.067 L 225.53 1501.457 L 322.186 1557.271 Z M 330.929 1684.109 L 225.53 1744.953 L 117.137 1682.432 L 222.536 1621.588 L 330.929 1684.109 Z M 322.186 1807.474 L 222.536 1865.084 L 125.76 1809.27 L 225.53 1751.66 L 322.186 1807.474 Z M 330.809 1934.312 L 225.53 1995.156 L 117.137 1932.635 L 222.536 1871.791 L 330.809 1934.312 Z M 322.186 2057.796 L 222.536 2115.286 L 125.76 2059.473 L 225.53 2001.982 L 322.186 2057.796 Z M 330.809 2184.634 L 225.53 2245.478 L 117.137 2182.838 L 222.536 2121.994 L 330.809 2184.634 Z M 322.186 2307.999 L 222.536 2365.609 L 125.76 2309.676 L 225.53 2252.185 L 322.186 2307.999 Z M 330.809 2434.837 L 225.53 2495.681 L 117.137 2433.16 L 222.536 2372.316 L 330.809 2434.837 Z M 336.678 2438.191 L 433.334 2494.004 L 328.054 2554.848 L 231.279 2499.035 L 336.678 2438.191 Z M 342.547 2434.837 L 442.197 2377.227 L 538.972 2433.16 L 439.202 2490.651 L 342.547 2434.837 Z M 544.721 2436.514 L 653.115 2499.035 L 553.345 2556.645 L 445.071 2494.004 L 544.721 2436.514 Z M 550.59 2433.16 L 655.869 2372.316 L 764.263 2434.837 L 658.864 2495.681 L 550.59 2433.16 Z M 770.132 2438.191 L 866.787 2494.004 L 761.508 2554.848 L 664.732 2499.035 L 770.132 2438.191 Z M 775.88 2434.837 L 875.65 2377.227 L 972.306 2433.16 L 872.656 2490.651 L 775.88 2434.837 Z M 978.175 2436.514 L 1086.448 2499.035 L 986.798 2556.645 L 878.405 2494.004 L 978.175 2436.514 Z M 983.924 2433.16 L 1089.323 2372.316 L 1197.716 2434.837 L 1092.317 2495.681 L 983.924 2433.16 Z M 1203.465 2438.191 L 1300.241 2494.004 L 1194.842 2554.848 L 1098.186 2499.035 L 1203.465 2438.191 Z M 1209.334 2434.837 L 1308.984 2377.227 L 1405.76 2433.16 L 1305.99 2490.651 L 1209.334 2434.837 Z M 1411.508 2436.514 L 1519.902 2499.035 L 1420.252 2556.645 L 1311.859 2494.004 L 1411.508 2436.514 Z M 1417.377 2433.16 L 1522.776 2372.316 L 1631.17 2434.837 L 1525.771 2495.681 L 1417.377 2433.16 Z M 1636.919 2438.191 L 1733.694 2494.004 L 1628.295 2554.848 L 1531.52 2499.035 L 1636.919 2438.191 Z M 1642.787 2434.837 L 1742.437 2377.227 L 1839.213 2433.16 L 1739.443 2490.651 L 1642.787 2434.837 Z M 1844.962 2436.514 L 1953.355 2499.035 L 1853.705 2556.645 L 1745.312 2494.004 L 1844.962 2436.514 Z M 1850.831 2433.16 L 1956.23 2372.316 L 2064.503 2434.837 L 1959.224 2495.681 L 1850.831 2433.16 Z M 2070.372 2438.191 L 2167.028 2494.004 L 2061.749 2554.848 L 1964.973 2499.035 L 2070.372 2438.191 Z M 2076.121 2434.837 L 2175.891 2377.227 L 2272.547 2433.16 L 2172.896 2490.651 L 2076.121 2434.837 Z M 2278.415 2436.514 L 2386.809 2499.035 L 2287.039 2556.645 L 2178.646 2494.004 L 2278.415 2436.514 Z M 2284.165 2433.16 L 2389.563 2372.316 L 2497.957 2434.837 L 2392.558 2495.681 L 2284.165 2433.16 Z M 2292.908 2309.676 L 2392.558 2252.185 L 2489.333 2307.999 L 2389.563 2365.609 L 2292.908 2309.676 Z M 2284.165 2182.838 L 2389.563 2121.994 L 2497.957 2184.634 L 2392.558 2245.478 L 2284.165 2182.838 Z M 2292.908 2059.473 L 2392.558 2001.863 L 2489.333 2057.796 L 2389.563 2115.286 L 2292.908 2059.473 Z M 2284.165 1932.635 L 2389.563 1871.791 L 2497.957 1934.312 L 2392.558 1995.156 L 2284.165 1932.635 Z M 2292.908 1809.27 L 2392.558 1751.66 L 2489.333 1807.474 L 2389.563 1865.084 L 2292.908 1809.27 Z M 2284.165 1682.432 L 2389.563 1621.588 L 2497.957 1684.109 L 2392.558 1744.953 L 2284.165 1682.432 Z M 2292.908 1559.067 L 2392.558 1501.457 L 2489.333 1557.271 L 2389.563 1614.881 L 2292.908 1559.067 Z M 2284.165 1432.229 L 2389.563 1371.385 L 2497.957 1433.906 L 2392.558 1494.75 L 2284.165 1432.229 Z M 2292.908 1308.744 L 2392.558 1251.254 L 2489.333 1307.068 L 2389.563 1364.558 L 2292.908 1308.744 Z M 2284.165 1181.906 L 2389.563 1121.062 L 2497.957 1183.703 L 2392.558 1244.547 L 2284.165 1181.906 Z M 2292.908 1058.542 L 2392.558 1000.931 L 2489.333 1056.865 L 2389.563 1114.355 L 2292.908 1058.542 Z M 2284.165 931.703 L 2389.563 870.859 L 2497.957 933.38 L 2392.558 994.224 L 2284.165 931.703 Z M 2292.908 808.339 L 2392.558 750.728 L 2489.333 806.542 L 2389.563 864.152 L 2292.908 808.339 Z M 2284.165 681.5 L 2389.563 620.656 L 2497.957 683.177 L 2392.558 744.021 L 2284.165 681.5 Z M 2292.908 558.016 L 2392.558 500.526 L 2489.333 556.339 L 2389.563 613.949 L 2292.908 558.016 Z M 2284.165 431.178 L 2389.563 370.334 L 2497.957 432.974 L 2392.558 493.818 L 2284.165 431.178 Z M 2292.908 307.813 L 2392.558 250.323 L 2489.333 306.136 L 2389.563 363.627 L 2292.908 307.813 Z M 2287.039 60.964 L 2383.814 116.777 L 2278.415 177.621 L 2181.64 121.808 L 2287.039 60.964 Z M 2272.547 180.975 L 2172.896 238.585 L 2076.121 182.771 L 2175.891 125.161 L 2272.547 180.975 Z M 2061.629 59.287 L 2170.022 121.808 L 2070.372 179.418 L 1961.979 116.777 L 2061.629 59.287 Z M 2064.503 182.771 L 1959.224 243.615 L 1850.831 180.975 L 1956.23 120.131 L 2064.503 182.771 Z M 1853.585 60.964 L 1950.361 116.777 L 1844.962 177.621 L 1748.306 121.808 L 1853.585 60.964 Z M 1839.213 180.975 L 1739.443 238.585 L 1642.787 182.771 L 1742.437 125.161 L 1839.213 180.975 Z M 1628.295 59.287 L 1736.688 121.808 L 1636.919 179.418 L 1528.525 116.777 L 1628.295 59.287 Z M 1631.05 182.771 L 1525.771 243.496 L 1417.377 180.975 L 1522.776 120.131 L 1631.05 182.771 Z M 1420.252 60.964 L 1516.907 116.777 L 1411.508 177.621 L 1314.853 121.808 L 1420.252 60.964 Z M 1405.76 180.975 L 1306.109 238.585 L 1209.334 182.771 L 1308.984 125.161 L 1405.76 180.975 Z M 1194.842 59.287 L 1303.235 121.808 L 1203.465 179.418 L 1095.192 116.777 L 1194.842 59.287 Z M 1197.716 182.771 L 1092.317 243.615 L 983.924 180.975 L 1089.323 120.131 L 1197.716 182.771 Z M 986.798 60.964 L 1083.574 116.777 L 978.175 177.621 L 881.399 121.808 L 986.798 60.964 Z M 972.306 180.975 L 872.656 238.585 L 775.88 182.771 L 875.65 125.161 L 972.306 180.975 Z M 761.388 59.287 L 869.781 121.808 L 770.132 179.418 L 661.738 116.777 L 761.388 59.287 Z M 764.263 182.771 L 658.864 243.615 L 550.59 180.975 L 655.869 120.131 L 764.263 182.771 Z M 553.345 60.964 L 650.12 116.777 L 544.721 177.621 L 448.066 121.808 L 553.345 60.964 Z M 538.972 180.975 L 439.202 238.585 L 342.547 182.771 L 442.197 125.161 L 538.972 180.975 Z M 328.054 59.287 L 436.328 121.808 L 336.678 179.418 L 228.285 116.777 L 328.054 59.287 Z M 330.929 182.771 L 225.53 243.615 L 117.137 180.975 L 222.536 120.131 L 330.929 182.771 Z M 14.612 121.808 L 120.011 60.964 L 216.667 116.777 L 111.268 177.621 L 14.612 121.808 Z M 11.618 241.939 L 111.268 184.329 L 219.661 246.969 L 120.011 304.459 L 11.618 241.939 Z M 14.612 372.011 L 120.011 311.167 L 216.667 366.98 L 111.268 427.824 L 14.612 372.011 Z M 11.618 492.142 L 111.268 434.531 L 219.661 497.172 L 120.011 554.662 L 11.618 492.142 Z M 14.612 622.214 L 120.011 561.37 L 216.667 617.303 L 111.268 678.147 L 14.612 622.214 Z M 11.618 742.344 L 111.268 684.854 L 219.661 747.375 L 120.011 804.985 L 11.618 742.344 Z M 14.612 872.536 L 120.011 811.692 L 216.667 867.506 L 111.268 928.35 L 14.612 872.536 Z M 11.618 992.667 L 111.268 935.057 L 219.661 997.578 L 120.011 1055.188 L 11.618 992.667 Z M 14.612 1122.739 L 120.011 1061.895 L 216.667 1117.709 L 111.268 1178.553 L 14.612 1122.739 Z M 11.618 1242.87 L 111.268 1185.26 L 219.661 1247.901 L 120.011 1305.391 L 11.618 1242.87 Z M 14.612 1372.942 L 120.011 1312.098 L 216.667 1368.031 L 111.268 1428.756 L 14.612 1372.942 Z M 11.618 1493.073 L 111.268 1435.583 L 219.661 1498.103 L 120.011 1555.594 L 11.618 1493.073 Z M 14.612 1623.265 L 120.011 1562.421 L 216.667 1618.234 L 111.268 1679.078 L 14.612 1623.265 Z M 11.618 1743.276 L 111.268 1685.786 L 219.661 1748.306 L 120.011 1805.916 L 11.618 1743.276 Z M 14.612 1873.468 L 120.011 1812.624 L 216.667 1868.437 L 111.268 1929.281 L 14.612 1873.468 Z M 11.618 1993.599 L 111.268 1935.988 L 219.661 1998.509 L 120.011 2056.119 L 11.618 1993.599 Z M 14.612 2123.67 L 120.011 2062.826 L 216.667 2118.64 L 111.268 2179.484 L 14.612 2123.67 Z M 11.618 2243.801 L 111.268 2186.191 L 219.661 2248.832 L 120.011 2306.322 L 11.618 2243.801 Z M 14.612 2373.873 L 120.011 2313.029 L 216.667 2368.963 L 111.268 2429.807 L 14.612 2373.873 Z M 11.618 2494.004 L 111.268 2436.514 L 219.661 2499.035 L 120.011 2556.645 L 11.618 2494.004 Z M 111.268 2680.01 L 14.612 2624.196 L 120.011 2563.352 L 216.667 2619.166 L 111.268 2680.01 Z M 125.76 2559.999 L 225.53 2502.388 L 322.186 2558.202 L 222.536 2615.812 L 125.76 2559.999 Z M 336.678 2681.686 L 228.285 2619.166 L 328.054 2561.555 L 436.328 2624.196 L 336.678 2681.686 Z M 333.803 2558.202 L 439.202 2497.358 L 547.596 2559.999 L 442.197 2620.843 L 333.803 2558.202 Z M 544.721 2680.01 L 448.066 2624.196 L 553.345 2563.352 L 650.12 2619.166 L 544.721 2680.01 Z M 559.214 2559.999 L 658.864 2502.388 L 755.639 2558.202 L 655.869 2615.812 L 559.214 2559.999 Z M 770.132 2681.686 L 661.738 2619.166 L 761.508 2561.555 L 869.781 2624.196 L 770.132 2681.686 Z M 767.257 2558.202 L 872.656 2497.358 L 980.93 2559.999 L 875.65 2620.843 L 767.257 2558.202 Z M 978.175 2680.01 L 881.399 2624.196 L 986.798 2563.352 L 1083.574 2619.166 L 978.175 2680.01 Z M 992.667 2559.999 L 1092.317 2502.388 L 1188.973 2558.202 L 1089.323 2615.812 L 992.667 2559.999 Z M 1203.465 2681.686 L 1095.192 2619.166 L 1194.842 2561.555 L 1303.235 2624.196 L 1203.465 2681.686 Z M 1200.71 2558.202 L 1305.99 2497.358 L 1414.383 2559.999 L 1308.984 2620.843 L 1200.71 2558.202 Z M 1411.508 2680.01 L 1314.853 2624.196 L 1420.252 2563.352 L 1516.907 2619.166 L 1411.508 2680.01 Z M 1426.001 2559.999 L 1525.771 2502.388 L 1622.426 2558.202 L 1522.776 2615.812 L 1426.001 2559.999 Z M 1636.919 2681.686 L 1528.525 2619.166 L 1628.295 2561.555 L 1736.688 2624.196 L 1636.919 2681.686 Z M 1634.044 2558.202 L 1739.443 2497.358 L 1847.836 2559.999 L 1742.437 2620.843 L 1634.044 2558.202 Z M 1844.962 2680.01 L 1748.306 2624.196 L 1853.705 2563.352 L 1950.361 2619.166 L 1844.962 2680.01 Z M 1859.454 2559.999 L 1959.224 2502.388 L 2055.88 2558.202 L 1956.23 2615.812 L 1859.454 2559.999 Z M 2070.372 2681.686 L 1961.979 2619.166 L 2061.749 2561.555 L 2170.022 2624.196 L 2070.372 2681.686 Z M 2067.498 2558.202 L 2172.896 2497.358 L 2281.29 2559.999 L 2175.891 2620.843 L 2067.498 2558.202 Z M 2278.415 2680.01 L 2181.64 2624.196 L 2287.039 2563.352 L 2383.814 2619.166 L 2278.415 2680.01 Z M 2292.908 2559.999 L 2392.558 2502.388 L 2489.333 2558.202 L 2389.563 2615.812 L 2292.908 2559.999 Z M 2603.476 2624.196 L 2503.706 2681.686 L 2395.432 2619.166 L 2495.082 2561.555 L 2603.476 2624.196 Z M 2600.481 2494.004 L 2495.082 2554.848 L 2398.427 2499.035 L 2503.826 2438.191 L 2600.481 2494.004 Z M 2603.476 2373.873 L 2503.826 2431.483 L 2395.432 2368.963 L 2495.082 2311.353 L 2603.476 2373.873 Z M 2600.481 2243.801 L 2495.082 2304.645 L 2398.427 2248.832 L 2503.826 2187.988 L 2600.481 2243.801 Z M 2603.476 2123.67 L 2503.826 2181.281 L 2395.432 2118.64 L 2495.082 2061.15 L 2603.476 2123.67 Z M 2600.481 1993.599 L 2495.082 2054.442 L 2398.427 1998.509 L 2503.706 1937.785 L 2600.481 1993.599 Z M 2603.476 1873.468 L 2503.706 1930.958 L 2395.432 1868.437 L 2495.082 1810.827 L 2603.476 1873.468 Z M 2600.481 1743.276 L 2495.082 1804.12 L 2398.427 1748.306 L 2503.706 1687.462 L 2600.481 1743.276 Z M 2603.476 1623.265 L 2503.706 1680.755 L 2395.432 1618.234 L 2495.082 1560.624 L 2603.476 1623.265 Z M 2600.481 1493.073 L 2495.082 1553.917 L 2398.427 1498.103 L 2503.826 1437.259 L 2600.481 1493.073 Z M 2603.476 1372.942 L 2503.826 1430.552 L 2395.432 1368.031 L 2495.082 1310.421 L 2603.476 1372.942 Z M 2600.481 1242.87 L 2495.082 1303.714 L 2398.427 1247.901 L 2503.706 1187.057 L 2600.481 1242.87 Z M 2603.476 1122.739 L 2503.706 1180.349 L 2395.432 1117.709 L 2495.082 1060.218 L 2603.476 1122.739 Z M 2600.481 992.667 L 2495.082 1053.511 L 2398.427 997.578 L 2503.706 936.734 L 2600.481 992.667 Z M 2603.476 872.536 L 2503.706 930.027 L 2395.432 867.506 L 2495.082 809.896 L 2603.476 872.536 Z M 2600.481 742.344 L 2495.082 803.188 L 2398.427 747.375 L 2503.706 686.531 L 2600.481 742.344 Z M 2603.476 622.214 L 2503.706 679.824 L 2395.432 617.303 L 2495.082 559.693 L 2603.476 622.214 Z M 2600.481 492.142 L 2495.082 552.986 L 2398.427 497.172 L 2503.826 436.328 L 2600.481 492.142 Z M 2603.476 372.011 L 2503.826 429.621 L 2395.432 366.98 L 2495.082 309.49 L 2603.476 372.011 Z M 2600.481 241.939 L 2495.082 302.783 L 2398.427 246.969 L 2503.706 186.125 L 2600.481 241.939 Z M 2503.706 179.418 L 2395.432 116.777 L 2495.082 59.287 L 2603.476 121.808 L 2503.706 179.418 Z M 2626.472 0 L 2614.854 0 L 2706 52.58 L 2706 45.873 L 2626.472 0 Z" fill="currentColor" fill-rule="nonzero"></path>
</svg>