<svg xmlns="http://www.w3.org/2000/svg" width="184" height="220" viewBox="0 0 184 220" fill="none">
  <path d="M 103.589 0.233 C 116.137 0.233 128.688 0.154 141.236 0.276 C 145.867 0.321 149.995 2.019 153.05 5.638 C 155.488 8.524 158.241 11.305 159.965 14.595 C 163.445 21.234 164.682 28.359 161.124 35.419 C 157.084 43.437 152.882 51.381 148.465 59.2 C 142.929 69.001 137.105 78.64 131.409 88.356 C 130.492 89.919 130.869 90.477 132.865 90.511 C 140.042 90.636 147.217 90.733 154.395 90.878 C 157.007 90.932 159.625 91.011 162.229 91.216 C 166.472 91.554 170.295 93.084 173.409 95.97 C 177.977 100.201 182.009 104.904 183.302 111.199 C 184.547 117.246 184.276 123.175 181.264 128.841 C 169.484 151.016 157.801 173.24 146.055 195.429 C 143.977 199.358 141.967 203.342 139.583 207.086 C 135.269 213.856 129.13 218.326 121.119 219.64 C 117.059 220.305 112.877 219.992 108.785 219.168 C 102.735 217.951 98.422 214.32 94.955 209.449 C 88.726 200.7 84.012 191.098 79.07 181.625 C 79.004 181.499 78.936 181.374 78.876 181.246 C 77.7 178.793 77.6 178.767 75.333 180.319 C 71.724 182.79 67.633 183.234 63.387 183.345 C 53.237 183.604 45.854 178.707 40.598 170.664 C 27.651 150.854 14.997 130.855 2.232 110.926 C 0.876 108.808 0.211 106.445 0.125 103.957 C 0.036 101.355 -0.129 98.722 0.176 96.155 C 0.428 94.048 0.981 91.83 1.992 89.982 C 7.691 79.57 13.455 69.192 19.414 58.925 C 28.721 42.886 38.254 26.974 47.587 10.95 C 51.873 3.588 58.177 -0.006 66.651 0 C 78.964 0.006 103.589 0.156 103.589 0.233 Z M 102.73 16.176 C 102.73 16.235 78.393 16.204 66.225 16.176 C 64.358 16.17 63.102 17.066 62.208 18.703 C 61.072 20.776 59.753 22.749 58.571 24.796 C 44.901 48.527 31.248 72.268 17.575 95.998 C 15.796 99.083 15.828 101.944 17.835 105.006 C 28.344 121.039 38.757 137.135 49.206 153.209 C 51.553 156.82 53.908 160.425 56.281 164.019 C 57.263 165.503 58.596 166.282 60.475 166.183 C 62.419 166.08 64.375 166.103 66.319 166.183 C 67.867 166.248 68.886 165.648 69.734 164.363 C 87.275 137.761 103.818 110.553 118.821 82.456 C 127.791 65.658 136.205 48.564 144.833 31.586 C 146.178 28.942 146.986 26.161 146.461 23.11 C 145.775 19.113 142.412 16.178 138.378 16.178 C 126.495 16.178 114.61 16.178 102.727 16.178 L 102.73 16.176 Z M 90.918 166.532 C 90.787 166.544 90.653 166.555 90.522 166.566 C 90.873 168.295 90.864 170.209 91.644 171.716 C 93.856 175.998 96.297 180.169 98.821 184.283 C 102.085 189.603 105.488 194.843 108.891 200.078 C 109.833 201.531 111.095 202.813 112.945 202.932 C 115.164 203.074 117.419 203.16 119.617 202.918 C 122.141 202.639 123.649 200.777 124.828 198.696 C 127.954 193.183 131.183 187.723 134.155 182.128 C 144.67 162.336 155.083 142.489 165.561 122.677 C 166.98 119.993 167.302 117.215 166.657 114.298 C 165.855 110.661 162.843 107.875 159.48 107.861 C 148.022 107.818 136.568 107.861 125.111 107.855 C 123.252 107.855 121.956 108.745 121.053 110.275 C 119.706 112.555 118.395 114.858 117.065 117.15 C 109.068 130.943 101.117 144.761 93.034 158.503 C 91.541 161.042 90.373 163.51 90.916 166.532 L 90.918 166.532 Z" fill="currentColor" fill-rule="nonzero"></path>
</svg>